<svg width="421" height="391" viewBox="0 0 421 391" fill="none" xmlns="http://www.w3.org/2000/svg">
<g clip-path="url(#clip0_754_142)">
<path d="M198.81 390.09H5.71C2.56 390.09 0 387.53 0 384.38V5.71C0 2.56 2.56 0 5.71 0H198.81C201.96 0 204.52 2.56 204.52 5.71V384.39C204.52 387.54 201.96 390.1 198.81 390.1V390.09ZM5.71 0.25C2.7 0.25 0.25 2.7 0.25 5.71V384.39C0.25 387.4 2.7 389.85 5.71 389.85H198.81C201.82 389.85 204.27 387.4 204.27 384.39V5.71C204.27 2.7 201.82 0.25 198.81 0.25H5.71Z" fill="#EBEBEB"/>
<path d="M415.1 390.09H222C218.85 390.09 216.29 387.53 216.29 384.38V5.71C216.29 2.56 218.85 0 222 0H415.1C418.25 0 420.81 2.56 420.81 5.71V384.39C420.81 387.54 418.25 390.1 415.1 390.1V390.09ZM222 0.25C218.99 0.25 216.54 2.7 216.54 5.71V384.39C216.54 387.4 218.99 389.85 222 389.85H415.1C418.11 389.85 420.56 387.4 420.56 384.39V5.71C420.56 2.7 418.11 0.25 415.1 0.25H222Z" fill="#EBEBEB"/>
<path d="M73.46 113.29L75.08 116.57L78.69 117.1L76.08 119.65L76.69 123.25L73.46 121.55L70.23 123.25L70.84 119.65L68.23 117.1L71.84 116.57L73.46 113.29Z" fill="#EBEBEB"/>
<path d="M397.11 267.53L398.73 270.81L402.34 271.33L399.73 273.88L400.34 277.48L397.11 275.78L393.88 277.48L394.49 273.88L391.88 271.33L395.49 270.81L397.11 267.53Z" fill="#F5F5F5"/>
<path d="M333 362.61L334.62 365.89L338.24 366.41L335.62 368.97L336.24 372.57L333 370.87L329.77 372.57L330.39 368.97L327.77 366.41L331.39 365.89L333 362.61Z" fill="#F5F5F5"/>
<path d="M186.35 55.2006L186.95 56.4206L188.29 56.6106C188.63 56.6606 188.76 57.0706 188.52 57.3106L187.55 58.2606L187.78 59.6006C187.84 59.9306 187.49 60.1906 187.19 60.0306L185.99 59.4006L184.79 60.0306C184.49 60.1906 184.14 59.9306 184.2 59.6006L184.43 58.2606L183.46 57.3106C183.22 57.0706 183.35 56.6606 183.69 56.6106L185.03 56.4206L185.63 55.2006C185.78 54.9006 186.21 54.9006 186.36 55.2006H186.35Z" fill="#EBEBEB"/>
<path d="M21.1799 347.05L21.7799 348.27L23.1199 348.46C23.4599 348.51 23.5899 348.92 23.3499 349.16L22.3799 350.11L22.6099 351.45C22.6699 351.78 22.3199 352.04 22.0199 351.88L20.8199 351.25L19.6199 351.88C19.3199 352.04 18.9699 351.78 19.0299 351.45L19.2599 350.11L18.2899 349.16C18.0499 348.92 18.1799 348.51 18.5199 348.46L19.8599 348.27L20.4599 347.05C20.6099 346.75 21.0399 346.75 21.1899 347.05H21.1799Z" fill="#F5F5F5"/>
<path d="M48.1599 42.35L48.7599 43.57L50.0999 43.76C50.4299 43.81 50.5699 44.22 50.3299 44.46L49.3599 45.41L49.5899 46.75C49.6499 47.08 49.2999 47.34 48.9999 47.18L47.7999 46.55L46.5999 47.18C46.2999 47.34 45.9499 47.08 46.0099 46.75L46.2399 45.41L45.2699 44.46C45.0299 44.22 45.1599 43.81 45.4999 43.76L46.8399 43.57L47.4399 42.35C47.5899 42.05 48.0199 42.05 48.1699 42.35H48.1599Z" fill="#EBEBEB"/>
<path d="M46.5399 283.37C46.5399 284.1 45.9499 284.7 45.2099 284.7C44.4699 284.7 43.8799 284.11 43.8799 283.37C43.8799 282.63 44.4699 282.04 45.2099 282.04C45.9499 282.04 46.5399 282.63 46.5399 283.37Z" fill="#EBEBEB"/>
<path d="M236.08 116.94C236.08 117.67 235.49 118.27 234.75 118.27C234.01 118.27 233.42 117.68 233.42 116.94C233.42 116.2 234.01 115.61 234.75 115.61C235.49 115.61 236.08 116.2 236.08 116.94Z" fill="#EBEBEB"/>
<path d="M167.11 43.4501C167.11 44.1801 166.52 44.7801 165.78 44.7801C165.04 44.7801 164.45 44.1901 164.45 43.4501C164.45 42.7101 165.04 42.1201 165.78 42.1201C166.52 42.1201 167.11 42.7101 167.11 43.4501Z" fill="#F5F5F5"/>
<path d="M169.22 367.587C173.171 366.655 175.617 362.696 174.685 358.745C173.753 354.795 169.794 352.348 165.843 353.28C161.892 354.213 159.446 358.171 160.378 362.122C161.311 366.073 165.269 368.52 169.22 367.587Z" fill="#F0F0F0"/>
<path d="M165 356.141C163.44 356.141 161.99 356.641 160.81 357.501C160.42 358.401 160.2 359.391 160.2 360.431C160.2 364.491 163.49 367.771 167.55 367.771C168.92 367.771 170.21 367.391 171.31 366.731C171.31 366.731 171.31 366.727 171.31 366.721C171.86 365.701 172.17 364.541 172.17 363.301C172.17 359.351 168.96 356.141 165 356.141Z" fill="#E6E6E6"/>
<path d="M108.09 232.69H47.23V205.22L108.08 132.88H137.2V206.78H152.29V232.7H137.2V255.17H108.08V232.7L108.09 232.69ZM108.09 206.77V168.93L75.93 206.77H108.09Z" fill="#2F6CC8"/>
<path d="M162.71 194.56C162.71 171.71 166.82 155.71 175.05 146.58C183.28 137.45 195.81 132.88 212.65 132.88C220.74 132.88 227.38 133.88 232.58 135.87C237.77 137.87 242.01 140.46 245.29 143.66C248.57 146.86 251.15 150.22 253.04 153.75C254.93 157.28 256.44 161.39 257.59 166.09C259.83 175.06 260.95 184.41 260.95 194.14C260.95 215.96 257.26 231.92 249.88 242.04C242.5 252.16 229.79 257.21 211.74 257.21C201.62 257.21 193.45 255.6 187.22 252.37C180.99 249.14 175.87 244.42 171.88 238.18C168.98 233.75 166.73 227.7 165.11 220.01C163.5 212.33 162.69 203.84 162.69 194.54L162.71 194.56ZM195.84 194.64C195.84 209.95 197.19 220.41 199.9 226.01C202.61 231.61 206.53 234.42 211.67 234.42C215.06 234.42 218 233.23 220.49 230.85C222.98 228.47 224.81 224.71 225.99 219.57C227.17 214.43 227.75 206.42 227.75 195.54C227.75 179.58 226.4 168.85 223.69 163.35C220.98 157.85 216.92 155.11 211.51 155.11C206.1 155.11 202 157.91 199.54 163.52C197.08 169.13 195.85 179.5 195.85 194.64H195.84Z" fill="#2F6CC8"/>
<path d="M332.15 232.69H271.3V205.22L332.15 132.88H361.27V206.78H376.36V232.7H361.27V255.17H332.15V232.7V232.69ZM332.15 206.77V168.93L299.99 206.77H332.15Z" fill="#2F6CC8"/>
<g opacity="0.3">
<path d="M161.36 90.6708C161.36 91.7008 160.52 92.5408 159.49 92.5408C158.46 92.5408 157.62 91.7008 157.62 90.6708C157.62 89.6408 158.46 88.8008 159.49 88.8008C160.52 88.8008 161.36 89.6408 161.36 90.6708Z" fill="#407BFF"/>
<path d="M33.37 162.5C34.0991 162.5 34.69 161.909 34.69 161.18C34.69 160.451 34.0991 159.86 33.37 159.86C32.641 159.86 32.05 160.451 32.05 161.18C32.05 161.909 32.641 162.5 33.37 162.5Z" fill="#407BFF"/>
<path d="M251.46 355.27C252.504 355.27 253.35 354.424 253.35 353.38C253.35 352.336 252.504 351.49 251.46 351.49C250.416 351.49 249.57 352.336 249.57 353.38C249.57 354.424 250.416 355.27 251.46 355.27Z" fill="#407BFF"/>
<path d="M296.9 278.37C297.629 278.37 298.22 277.779 298.22 277.05C298.22 276.321 297.629 275.73 296.9 275.73C296.171 275.73 295.58 276.321 295.58 277.05C295.58 277.779 296.171 278.37 296.9 278.37Z" fill="#407BFF"/>
<path d="M384.58 40.6706C384.58 41.4006 383.99 41.9906 383.26 41.9906C382.53 41.9906 381.94 41.4006 381.94 40.6706C381.94 39.9406 382.53 39.3506 383.26 39.3506C383.99 39.3506 384.58 39.9406 384.58 40.6706Z" fill="#407BFF"/>
<path d="M133.16 14.0104C133.16 14.7404 132.57 15.3304 131.84 15.3304C131.11 15.3304 130.52 14.7404 130.52 14.0104C130.52 13.2804 131.11 12.6904 131.84 12.6904C132.57 12.6904 133.16 13.2804 133.16 14.0104Z" fill="#407BFF"/>
<path d="M238.1 83.3109C238.829 83.3109 239.42 82.7199 239.42 81.9909C239.42 81.2619 238.829 80.6709 238.1 80.6709C237.371 80.6709 236.78 81.2619 236.78 81.9909C236.78 82.7199 237.371 83.3109 238.1 83.3109Z" fill="#407BFF"/>
</g>
<path d="M101.64 83.32C113.741 83.32 123.55 73.5106 123.55 61.41C123.55 49.3094 113.741 39.5 101.64 39.5C89.5394 39.5 79.73 49.3094 79.73 61.41C79.73 73.5106 89.5394 83.32 101.64 83.32Z" fill="#407BFF"/>
<path opacity="0.7" d="M101.64 83.32C113.741 83.32 123.55 73.5106 123.55 61.41C123.55 49.3094 113.741 39.5 101.64 39.5C89.5394 39.5 79.73 49.3094 79.73 61.41C79.73 73.5106 89.5394 83.32 101.64 83.32Z" fill="white"/>
<path opacity="0.2" d="M94.09 44.8799C91.02 44.8799 88.1 45.5099 85.45 46.6499C81.9 50.5399 79.73 55.7299 79.73 61.4099C79.73 73.5099 89.54 83.3099 101.63 83.3099C104.71 83.3099 107.65 82.6799 110.31 81.5299C113.84 77.6299 115.99 72.4599 115.99 66.7899C115.99 54.6799 106.18 44.8799 94.08 44.8799H94.09Z" fill="#407BFF"/>
<path opacity="0.2" d="M91.9099 50.6699C91.9099 51.7799 91.0099 52.6699 89.9099 52.6699C88.8099 52.6699 87.9099 51.7699 87.9099 50.6699C87.9099 49.5699 88.8099 48.6699 89.9099 48.6699C91.0099 48.6699 91.9099 49.5699 91.9099 50.6699Z" fill="#407BFF"/>
<path opacity="0.2" d="M115.47 48.6699C115.47 49.7799 114.57 50.6699 113.47 50.6699C112.37 50.6699 111.47 49.7699 111.47 48.6699C111.47 47.5699 112.37 46.6699 113.47 46.6699C114.57 46.6699 115.47 47.5699 115.47 48.6699Z" fill="#407BFF"/>
<path opacity="0.2" d="M111.46 62.9499C111.46 64.7599 109.99 66.2299 108.18 66.2299C106.37 66.2299 104.9 64.7599 104.9 62.9499C104.9 61.1399 106.37 59.6699 108.18 59.6699C109.99 59.6699 111.46 61.1399 111.46 62.9499Z" fill="#407BFF"/>
<path opacity="0.2" d="M101.05 72.2902C101.05 74.7102 99.09 76.6702 96.67 76.6702C94.25 76.6702 92.29 74.7102 92.29 72.2902C92.29 69.8702 94.25 67.9102 96.67 67.9102C99.09 67.9102 101.05 69.8702 101.05 72.2902Z" fill="#407BFF"/>
<path d="M361.313 325.705C363.752 315.368 357.351 305.011 347.014 302.572C336.678 300.132 326.321 306.534 323.881 316.87C321.442 327.207 327.843 337.564 338.18 340.003C348.516 342.443 358.873 336.041 361.313 325.705Z" fill="#407BFF"/>
<path opacity="0.3" d="M361.313 325.705C363.752 315.368 357.351 305.011 347.014 302.572C336.678 300.132 326.321 306.534 323.881 316.87C321.442 327.207 327.843 337.564 338.18 340.003C348.516 342.443 358.873 336.041 361.313 325.705Z" fill="white"/>
<path opacity="0.4" d="M354.74 306.39C352.99 305.86 351.13 305.58 349.2 305.58C338.58 305.58 329.97 314.19 329.97 324.81C329.97 330.83 332.73 336.19 337.06 339.72C338.81 340.25 340.67 340.53 342.6 340.53C353.22 340.53 361.83 331.92 361.83 321.3C361.83 315.28 359.07 309.91 354.74 306.39Z" fill="#407BFF"/>
<path d="M324.24 327C303.71 336.66 319.02 344.11 347.95 333.71C374.73 324.08 384.92 311.94 361 315.7C362.23 320.81 328.69 333.88 324.24 326.99V327Z" fill="#407BFF"/>
<path d="M215.42 313.311C198.45 313.311 181.61 305.651 173.43 293.121C168.38 285.381 162.51 269.171 179.99 247.541L181.55 248.801C169.19 264.101 166.9 279.451 175.11 292.031C185.1 307.341 208.71 315.041 228.84 309.561C249.47 303.951 261.99 286.001 263.2 260.331C267.33 172.521 313.98 145.481 348.05 125.731C369.21 113.461 384.5 104.591 381.14 85.8907C380.67 83.3007 379.64 81.5007 377.98 80.4107C373.63 77.5407 365.13 79.5207 355.29 81.8207C335.98 86.3207 309.54 92.4807 293.79 65.6907L295.51 64.6807C310.52 90.2007 335.09 84.4807 354.83 79.8807C365.12 77.4807 374.01 75.4107 379.08 78.7507C381.22 80.1607 382.54 82.3907 383.11 85.5507C386.72 105.631 370.1 115.271 349.05 127.471C315.39 146.991 269.28 173.721 265.2 260.441C263.95 287.041 250.89 305.651 229.37 311.501C224.83 312.731 220.12 313.321 215.43 313.321L215.42 313.311Z" fill="#407BFF"/>
<path d="M215.42 313.311C198.45 313.311 181.61 305.651 173.43 293.121C168.38 285.381 162.51 269.171 179.99 247.541L181.55 248.801C169.19 264.101 166.9 279.451 175.11 292.031C185.1 307.341 208.71 315.041 228.84 309.561C249.47 303.951 261.99 286.001 263.2 260.331C267.33 172.521 313.98 145.481 348.05 125.731C369.21 113.461 384.5 104.591 381.14 85.8907C380.67 83.3007 379.64 81.5007 377.98 80.4107C373.63 77.5407 365.13 79.5207 355.29 81.8207C335.98 86.3207 309.54 92.4807 293.79 65.6907L295.51 64.6807C310.52 90.2007 335.09 84.4807 354.83 79.8807C365.12 77.4807 374.01 75.4107 379.08 78.7507C381.22 80.1607 382.54 82.3907 383.11 85.5507C386.72 105.631 370.1 115.271 349.05 127.471C315.39 146.991 269.28 173.721 265.2 260.441C263.95 287.041 250.89 305.651 229.37 311.501C224.83 312.731 220.12 313.321 215.43 313.321L215.42 313.311Z" fill="#2F6CC8"/>
<path d="M273.16 41.9998C280.02 41.8798 286.74 44.1298 286.74 44.1298C286.74 44.1298 297.7 62.8997 299.04 67.1997C298.58 71.4397 291.42 78.3898 291.42 78.3898L273.15 41.9998H273.16Z" fill="#407BFF"/>
<path opacity="0.3" d="M273.16 41.9998C280.02 41.8798 286.74 44.1298 286.74 44.1298C286.74 44.1298 297.7 62.8997 299.04 67.1997C298.58 71.4397 291.42 78.3898 291.42 78.3898L273.15 41.9998H273.16Z" fill="white"/>
<path d="M305.75 133.18C301.61 127.93 297.55 122.59 294.19 116.8C293.35 115.35 292.55 113.88 291.8 112.38C291.37 111.53 290.96 110.67 290.56 109.81C290.21 109.06 289.43 107.95 289.36 107.13C288.16 94.46 292.5 85.13 288.33 74.96L271.86 81.4C271.86 81.4 273.26 99.52 276.46 110.36C278.44 117.09 282.93 122.91 287.26 128.3C288.61 129.99 289.92 131.71 291.27 133.4C292.55 135 293.98 136.46 295.26 138.05C297.21 140.46 297.85 142.77 296.37 145.61C296.29 145.76 296.21 145.91 296.12 146.06C295.7 146.8 297.67 147.64 298.9 146.08C300.94 143.5 300.62 143.66 302.36 141.46C303.42 140.12 304.63 138.68 305.68 137.43C306.7 136.21 306.73 134.44 305.74 133.18H305.75Z" fill="#407BFF"/>
<path opacity="0.7" d="M305.75 133.18C301.61 127.93 297.55 122.59 294.19 116.8C293.35 115.35 292.55 113.88 291.8 112.38C291.37 111.53 290.96 110.67 290.56 109.81C290.21 109.06 289.43 107.95 289.36 107.13C288.16 94.46 292.5 85.13 288.33 74.96L271.86 81.4C271.86 81.4 273.26 99.52 276.46 110.36C278.44 117.09 282.93 122.91 287.26 128.3C288.61 129.99 289.92 131.71 291.27 133.4C292.55 135 293.98 136.46 295.26 138.05C297.21 140.46 297.85 142.77 296.37 145.61C296.29 145.76 296.21 145.91 296.12 146.06C295.7 146.8 297.67 147.64 298.9 146.08C300.94 143.5 300.62 143.66 302.36 141.46C303.42 140.12 304.63 138.68 305.68 137.43C306.7 136.21 306.73 134.44 305.74 133.18H305.75Z" fill="white"/>
<path opacity="0.3" d="M301.72 127.97C299.51 130.64 295.03 134.09 293.06 135.49C293.49 135.97 293.92 136.46 294.34 136.95C298.41 134.29 301.62 130.85 302.84 129.45C302.46 128.96 302.09 128.47 301.72 127.97Z" fill="#407BFF"/>
<path opacity="0.3" d="M305.74 133.18C305.7 133.13 305.66 133.09 305.62 133.03C304.93 133.75 304.44 134.91 304.36 136.2C304.29 137.09 304.44 137.91 304.74 138.55C305.07 138.16 305.38 137.78 305.69 137.42C306.72 136.2 306.73 134.43 305.74 133.18Z" fill="#407BFF"/>
<path d="M269.25 54.0005C267.53 56.5105 265.5 58.9805 262.87 61.1905C261.57 62.3005 260.08 63.3105 258.45 64.1705C257.63 64.5905 256.76 64.9505 255.87 65.2505L255.2 65.4705L254.98 65.5405C254.82 65.5905 254.66 65.6305 254.5 65.6705C254.2 65.7405 253.89 65.7805 253.63 65.8105C252.55 65.8905 251.76 65.7405 251.12 65.5805C249.84 65.2305 248.99 64.7705 248.18 64.3205C247.38 63.8605 246.69 63.3905 246.03 62.9105C244.73 61.9205 243.55 60.9205 242.45 59.8605C240.24 57.7505 238.28 55.5605 236.46 53.1205C235.63 52.0105 235.86 50.4405 236.97 49.6105C237.83 48.9705 238.96 48.9605 239.81 49.5005L239.89 49.5505C242.25 51.0505 244.63 52.6305 246.95 54.0405C248.12 54.7305 249.27 55.4305 250.4 55.9705C250.95 56.2505 251.5 56.5105 251.99 56.6905C252.47 56.8805 252.94 56.9805 253.07 56.9605C253.12 56.9605 253.07 56.8905 252.69 56.9005C252.6 56.9005 252.47 56.9205 252.35 56.9405C252.28 56.9505 252.2 56.9705 252.13 57.0005C252.06 57.0205 252.16 56.9805 252.16 56.9805L252.49 56.8105C252.93 56.5905 253.35 56.3105 253.78 56.0205C254.64 55.4405 255.45 54.7105 256.28 53.9005C257.93 52.2705 259.51 50.2305 261.18 48.1105L261.2 48.0805C262.91 45.9105 266.06 45.5405 268.23 47.2605C270.31 48.9005 270.72 51.8705 269.25 54.0205V54.0005Z" fill="#407BFF"/>
<path opacity="0.7" d="M269.25 54.0005C267.53 56.5105 265.5 58.9805 262.87 61.1905C261.57 62.3005 260.08 63.3105 258.45 64.1705C257.63 64.5905 256.76 64.9505 255.87 65.2505L255.2 65.4705L254.98 65.5405C254.82 65.5905 254.66 65.6305 254.5 65.6705C254.2 65.7405 253.89 65.7805 253.63 65.8105C252.55 65.8905 251.76 65.7405 251.12 65.5805C249.84 65.2305 248.99 64.7705 248.18 64.3205C247.38 63.8605 246.69 63.3905 246.03 62.9105C244.73 61.9205 243.55 60.9205 242.45 59.8605C240.24 57.7505 238.28 55.5605 236.46 53.1205C235.63 52.0105 235.86 50.4405 236.97 49.6105C237.83 48.9705 238.96 48.9605 239.81 49.5005L239.89 49.5505C242.25 51.0505 244.63 52.6305 246.95 54.0405C248.12 54.7305 249.27 55.4305 250.4 55.9705C250.95 56.2505 251.5 56.5105 251.99 56.6905C252.47 56.8805 252.94 56.9805 253.07 56.9605C253.12 56.9605 253.07 56.8905 252.69 56.9005C252.6 56.9005 252.47 56.9205 252.35 56.9405C252.28 56.9505 252.2 56.9705 252.13 57.0005C252.06 57.0205 252.16 56.9805 252.16 56.9805L252.49 56.8105C252.93 56.5905 253.35 56.3105 253.78 56.0205C254.64 55.4405 255.45 54.7105 256.28 53.9005C257.93 52.2705 259.51 50.2305 261.18 48.1105L261.2 48.0805C262.91 45.9105 266.06 45.5405 268.23 47.2605C270.31 48.9005 270.72 51.8705 269.25 54.0205V54.0005Z" fill="white"/>
<path d="M232.69 47.4603L233.86 49.4303C233.86 49.4303 234.76 52.0503 236.55 52.5303L241.4 50.9603L241.16 50.5503C240.54 49.6003 240.61 47.7803 240.82 46.2603C241.04 44.7403 240.25 44.6903 239.67 45.0603C239.33 45.2803 239.1 45.9703 238.82 46.7203C238.58 46.3903 238.33 46.0703 238.04 45.7903L236.56 44.3103C235.92 43.6703 234.89 43.6403 234.22 44.2403L233.02 45.3103C232.41 45.8503 232.27 46.7603 232.69 47.4603Z" fill="#407BFF"/>
<path opacity="0.7" d="M232.69 47.4603L233.86 49.4303C233.86 49.4303 234.76 52.0503 236.55 52.5303L241.4 50.9603L241.16 50.5503C240.54 49.6003 240.61 47.7803 240.82 46.2603C241.04 44.7403 240.25 44.6903 239.67 45.0603C239.33 45.2803 239.1 45.9703 238.82 46.7203C238.58 46.3903 238.33 46.0703 238.04 45.7903L236.56 44.3103C235.92 43.6703 234.89 43.6403 234.22 44.2403L233.02 45.3103C232.41 45.8503 232.27 46.7603 232.69 47.4603Z" fill="white"/>
<path d="M278.08 40.2705C273.43 41.4005 267.04 44.0505 262.73 46.7405C261.2 47.6905 260.44 49.5005 260.8 51.2605C262.72 60.7005 267.11 73.3405 271.85 81.3905L293.96 72.2405C294.11 68.3405 288.74 55.7205 283.28 43.5205C282.3 41.3305 280.42 39.7005 278.08 40.2605V40.2705Z" fill="#407BFF"/>
<path opacity="0.8" d="M278.08 40.2705C273.43 41.4005 267.04 44.0505 262.73 46.7405C261.2 47.6905 260.44 49.5005 260.8 51.2605C262.72 60.7005 267.11 73.3405 271.85 81.3905L293.96 72.2405C294.11 68.3405 288.74 55.7205 283.28 43.5205C282.3 41.3305 280.42 39.7005 278.08 40.2605V40.2705Z" fill="white"/>
<path opacity="0.3" d="M286.7 51.26L282.31 49.79C283.29 52.36 286.84 55.61 289.34 57.52C288.52 55.51 287.63 53.42 286.7 51.26Z" fill="#407BFF"/>
<path d="M276.62 30.3702C274.8 26.8902 270.85 25.1402 266.1 25.5302C262.1 25.8602 258.56 29.9502 258.98 32.1502C259.4 34.3602 262.76 35.2902 263.37 36.0602L260.6 38.0702C259.22 39.0702 258.95 41.0202 260 42.3602C261.17 43.8402 262.7 45.3902 263.6 46.4802C271.26 46.2802 276.93 43.3602 278.97 40.5402C278.24 36.9602 278.43 33.8302 276.61 30.3602L276.62 30.3702Z" fill="#407BFF"/>
<path opacity="0.8" d="M276.62 30.3702C274.8 26.8902 270.85 25.1402 266.1 25.5302C262.1 25.8602 258.56 29.9502 258.98 32.1502C259.4 34.3602 262.76 35.2902 263.37 36.0602L260.6 38.0702C259.22 39.0702 258.95 41.0202 260 42.3602C261.17 43.8402 262.7 45.3902 263.6 46.4802C271.26 46.2802 276.93 43.3602 278.97 40.5402C278.24 36.9602 278.43 33.8302 276.61 30.3602L276.62 30.3702Z" fill="white"/>
<path d="M272.87 32.5199C274.39 36.4199 272.47 40.8099 268.57 42.3299C264.67 43.8499 260.28 41.9299 258.76 38.0299C257.24 34.1299 259.16 29.7399 263.06 28.2199C266.96 26.6999 271.35 28.6199 272.87 32.5199Z" fill="#263238"/>
<path d="M337.79 122.64C337.68 119.35 337.54 119.68 337.44 116.88C337.38 115.18 337.37 113.29 337.36 111.66C337.35 110.07 336.22 108.7 334.66 108.38C333.33 108.11 332.01 107.86 330.68 107.57C328.95 107.2 327.25 106.81 325.55 106.31C324.24 105.93 322.93 105.51 321.65 105.04C320.27 104.54 318.91 104 317.56 103.42C315.98 102.74 314.43 102.02 312.88 101.28C311.15 100.45 309.44 99.6005 307.74 98.7305C301.16 87.8305 301.02 80.6605 293.95 72.2305L278.79 79.0905C278.79 79.0905 289.93 98.8505 297.51 107.23C301.88 112.05 308.73 114.23 314.84 115.8C319.25 116.94 323.72 117.81 328.19 118.63C329.93 118.95 331.82 119.07 333.32 120.11C334.5 120.93 335.11 122.21 335.46 123.56C335.53 123.84 335.59 124.12 335.64 124.4C335.8 125.24 337.84 124.61 337.77 122.62L337.79 122.64Z" fill="#407BFF"/>
<path opacity="0.8" d="M337.79 122.64C337.68 119.35 337.54 119.68 337.44 116.88C337.38 115.18 337.37 113.29 337.36 111.66C337.35 110.07 336.22 108.7 334.66 108.38C333.33 108.11 332.01 107.86 330.68 107.57C328.95 107.2 327.25 106.81 325.55 106.31C324.24 105.93 322.93 105.51 321.65 105.04C320.27 104.54 318.91 104 317.56 103.42C315.98 102.74 314.43 102.02 312.88 101.28C311.15 100.45 309.44 99.6005 307.74 98.7305C301.16 87.8305 301.02 80.6605 293.95 72.2305L278.79 79.0905C278.79 79.0905 289.93 98.8505 297.51 107.23C301.88 112.05 308.73 114.23 314.84 115.8C319.25 116.94 323.72 117.81 328.19 118.63C329.93 118.95 331.82 119.07 333.32 120.11C334.5 120.93 335.11 122.21 335.46 123.56C335.53 123.84 335.59 124.12 335.64 124.4C335.8 125.24 337.84 124.61 337.77 122.62L337.79 122.64Z" fill="white"/>
<path opacity="0.3" d="M330.11 107.45C329.51 107.32 328.91 107.19 328.3 107.04C328.35 110.49 326.73 116.46 326.13 118.26C326.76 118.38 327.4 118.5 328.03 118.62C329.79 113.87 330.06 108.85 330.1 107.44L330.11 107.45Z" fill="#407BFF"/>
<path opacity="0.3" d="M337.37 111.66C337.36 110.06 336.24 108.7 334.68 108.38C334.37 108.32 334.04 108.25 333.73 108.19C333.8 109.13 334.38 110.22 335.36 111.09C336 111.67 336.73 112.05 337.39 112.23C337.39 112.03 337.39 111.84 337.38 111.66H337.37Z" fill="#407BFF"/>
<path d="M271.45 32.5901C271.85 34.1101 270.16 35.7001 268.8 34.3901C267.7 33.3301 266.04 31.5401 264.68 30.7001C263.29 29.8301 265.14 28.3101 267.33 28.9001C269.37 29.4501 271.04 31.0801 271.45 32.5901Z" fill="white"/>
<path d="M271.57 80.9103C270.87 81.1703 272.15 82.3703 272.15 82.3703C272.15 82.3703 286.12 77.5803 294.64 72.6503C294.71 71.6203 293.96 71.0703 293.96 71.0703C293.96 71.0703 283.59 76.4703 271.56 80.9103H271.57Z" fill="#407BFF"/>
<path opacity="0.5" d="M271.57 80.9103C270.87 81.1703 272.15 82.3703 272.15 82.3703C272.15 82.3703 286.12 77.5803 294.64 72.6503C294.71 71.6203 293.96 71.0703 293.96 71.0703C293.96 71.0703 283.59 76.4703 271.56 80.9103H271.57Z" fill="white"/>
<path d="M281.87 39.6101C284.63 41.0001 287.22 42.4801 289.82 44.1101C291.11 44.9201 292.4 45.7601 293.66 46.6601C294.94 47.5401 296.19 48.4701 297.46 49.5201L297.93 49.9101L298.52 50.4401C298.94 50.8101 299.25 51.1501 299.56 51.4901C299.88 51.8401 300.15 52.1801 300.41 52.5201C300.68 52.8601 300.94 53.2001 301.18 53.5301C302.17 54.8601 302.98 56.2101 303.77 57.5501C305.31 60.2701 306.64 62.9801 307.74 65.9001C308.23 67.2001 307.57 68.6501 306.27 69.1401C305.29 69.5101 304.23 69.2301 303.55 68.5101L303.5 68.4601C301.49 66.3301 299.56 64.0901 297.62 62.0001C295.72 59.9201 293.71 57.7901 292.08 56.8601C289.81 55.4401 287.28 54.0401 284.77 52.6501L277.21 48.4501H277.19C274.77 47.1001 273.9 44.0601 275.24 41.6401C276.55 39.2901 279.48 38.4001 281.87 39.6001V39.6101Z" fill="#407BFF"/>
<path opacity="0.8" d="M281.87 39.6101C284.63 41.0001 287.22 42.4801 289.82 44.1101C291.11 44.9201 292.4 45.7601 293.66 46.6601C294.94 47.5401 296.19 48.4701 297.46 49.5201L297.93 49.9101L298.52 50.4401C298.94 50.8101 299.25 51.1501 299.56 51.4901C299.88 51.8401 300.15 52.1801 300.41 52.5201C300.68 52.8601 300.94 53.2001 301.18 53.5301C302.17 54.8601 302.98 56.2101 303.77 57.5501C305.31 60.2701 306.64 62.9801 307.74 65.9001C308.23 67.2001 307.57 68.6501 306.27 69.1401C305.29 69.5101 304.23 69.2301 303.55 68.5101L303.5 68.4601C301.49 66.3301 299.56 64.0901 297.62 62.0001C295.72 59.9201 293.71 57.7901 292.08 56.8601C289.81 55.4401 287.28 54.0401 284.77 52.6501L277.21 48.4501H277.19C274.77 47.1001 273.9 44.0601 275.24 41.6401C276.55 39.2901 279.48 38.4001 281.87 39.6001V39.6101Z" fill="white"/>
<path d="M310.14 70.7897L309.29 68.6597C309.29 68.6597 308.82 65.9397 307.12 65.1797L302.08 65.9697L302.26 66.4097C302.73 67.4397 302.37 69.2397 301.92 70.6997C301.47 72.1697 302.24 72.3397 302.87 72.0597C303.24 71.8997 303.58 71.2497 303.97 70.5497C304.15 70.9097 304.36 71.2697 304.6 71.5997L305.83 73.2897C306.36 74.0197 307.37 74.2097 308.13 73.7197L309.48 72.8497C310.17 72.4097 310.45 71.5397 310.15 70.7797L310.14 70.7897Z" fill="#407BFF"/>
<path opacity="0.8" d="M310.14 70.7897L309.29 68.6597C309.29 68.6597 308.82 65.9397 307.12 65.1797L302.08 65.9697L302.26 66.4097C302.73 67.4397 302.37 69.2397 301.92 70.6997C301.47 72.1697 302.24 72.3397 302.87 72.0597C303.24 71.8997 303.58 71.2497 303.97 70.5497C304.15 70.9097 304.36 71.2697 304.6 71.5997L305.83 73.2897C306.36 74.0197 307.37 74.2097 308.13 73.7197L309.48 72.8497C310.17 72.4097 310.45 71.5397 310.15 70.7797L310.14 70.7897Z" fill="white"/>
<path opacity="0.3" d="M277.64 51.1006L276.42 51.2006L268.93 69.2806C269.37 69.3106 269.77 69.2806 270.15 69.1806C270.15 69.1806 279.91 65.5406 282.86 64.2106C280.87 60.0906 277.63 51.1006 277.63 51.1006H277.64Z" fill="#407BFF"/>
<path d="M263.97 55.8509C264.39 59.1109 266.83 66.0309 268.93 69.2909C272.59 68.0309 278.69 65.6509 281.64 64.3209C279.65 60.2009 277.56 54.5209 276.41 51.2109C273.26 51.4209 266.4 54.0109 263.96 55.8609L263.97 55.8509Z" fill="white"/>
<path opacity="0.3" d="M271.41 59.7607C271 61.1207 269.56 61.9007 268.2 61.4907C266.84 61.0807 266.06 59.6407 266.47 58.2807C266.88 56.9207 268.32 56.1407 269.68 56.5507C271.04 56.9607 271.82 58.4007 271.41 59.7607Z" fill="#407BFF"/>
<path opacity="0.6" d="M273.32 56.3206C273.19 56.7706 272.72 57.0206 272.27 56.8906C271.82 56.7606 271.57 56.2906 271.7 55.8406C271.83 55.3906 272.3 55.1406 272.75 55.2706C273.2 55.4006 273.45 55.8706 273.32 56.3206Z" fill="#407BFF"/>
<path opacity="0.6" d="M275.55 55.4505C275.42 55.9005 274.95 56.1505 274.5 56.0205C274.05 55.8905 273.8 55.4205 273.93 54.9705C274.06 54.5205 274.54 54.2705 274.98 54.4005C275.43 54.5305 275.68 55.0005 275.55 55.4505Z" fill="#407BFF"/>
<path opacity="0.5" d="M278.7 63.2309L269.45 66.8909L268.89 65.0709L278.14 61.4209L278.7 63.2309Z" fill="#407BFF"/>
</g>
<defs>
<clipPath id="clip0_754_142">
<rect width="420.81" height="390.09" fill="white"/>
</clipPath>
</defs>
</svg>
